<svg xmlns="http://www.w3.org/2000/svg" version="1.1" xmlns:xlink="http://www.w3.org/1999/xlink" xmlns:svgjs="http://svgjs.dev/svgjs" width="1500" height="1500" viewBox="0 0 1500 1500"><rect width="1500" height="1500" fill="#ffffff"></rect><g transform="matrix(0.6666666666666666,0,0,0.6666666666666666,249.39393939393938,706.8275821471076)"><svg viewBox="0 0 396 34" data-background-color="#213529" preserveAspectRatio="xMidYMid meet" height="128" width="1500" xmlns="http://www.w3.org/2000/svg" xmlns:xlink="http://www.w3.org/1999/xlink"><g id="tight-bounds" transform="matrix(1,0,0,1,0.2400000000000091,0.20151023826184655)"><svg viewBox="0 0 395.52 33.5969795234763" height="33.5969795234763" width="395.52"><g><svg viewBox="0 0 447.8258874963703 38.04004139436224" height="33.5969795234763" width="395.52"><g transform="matrix(1,0,0,1,52.305887496370296,3.5563377940598357)"><svg viewBox="0 0 395.52 30.92736580624257" height="30.92736580624257" width="395.52"><g id="textblocktransform"><svg viewBox="0 0 395.52 30.92736580624257" height="30.92736580624257" width="395.52" id="textblock"><g><svg viewBox="0 0 395.52 30.92736580624257" height="30.92736580624257" width="395.52"><g transform="matrix(1,0,0,1,0,0)"><svg width="395.52" viewBox="1.65 -35.6 462.90000000000003 36.2" height="30.92736580624257" data-palette-color="#f6ca02"><path d="M7.15-12.2Q7.65-9.6 9.43-7.5 11.2-5.4 12.18-5.4 13.15-5.4 14.25-7.45L14.25-7.45Q14.65-8.25 14.65-10.25 14.65-12.25 14-13.1L14-13.1Q11.65-15.75 8.9-16.2L8.9-16.2 8.9-19.55Q11.65-20.55 13.4-21.9L13.4-21.9Q14.15-22.45 14.15-24.6L14.15-24.6Q14.15-25.55 13.15-26.43 12.15-27.3 11.5-27.3 10.85-27.3 9.43-25.45 8-23.6 7.55-21.35L7.55-21.35 2.15-24.45Q2.85-27.65 5.95-30.73 9.05-33.8 11.6-33.8L11.6-33.8Q13.25-33.8 16.65-31.18 20.05-28.55 20.5-27.2L20.5-27.2Q20.85-26.25 20.85-23.43 20.85-20.6 20.3-19.9L20.3-19.9Q19.35-18.75 17.85-17.95L17.85-17.95Q20.2-16.1 20.78-15.18 21.35-14.25 21.35-10.68 21.35-7.1 20.7-5.83 20.05-4.55 16.63-1.98 13.2 0.6 11.6 0.6L11.6 0.6Q8.9 0.6 5.63-2.35 2.35-5.3 1.65-8.45L1.65-8.45 7.15-12.2ZM44.7-32.85L44.7-32.85Q48.7-35.6 50.15-35.6 51.6-35.6 54.62-32.98 57.65-30.35 58.4-29.28 59.15-28.2 59.15-26.45L59.15-26.45Q59.15-23.05 58.6-22.4L58.6-22.4Q57.55-20.8 55.35-18.65L55.35-18.65Q58.4-15.75 59.15-14.2L59.15-14.2Q59.55-13.15 60-7.83 60.45-2.5 60.45 0L60.45 0 52.95 0Q52.95-2.25 52.55-7.05 52.15-11.85 51.67-12.85 51.2-13.85 50.55-14.6L50.55-14.6 46.1-14.6 46.1 0 39.2 0 39.2-21.9Q39.2-25.95 38.62-27.53 38.05-29.1 36.2-31.4L36.2-31.4 42.2-35.6Q43.8-34.55 44.7-32.85ZM46.1-24.3L46.1-24.3 46.1-20.45 48.05-20.45Q48.75-20.45 49.85-21.55 50.95-22.65 51.27-23.43 51.6-24.2 51.6-25.05 51.6-25.9 51.27-26.58 50.95-27.25 50.35-28.1 49.75-28.95 49.35-28.95L49.35-28.95Q48-28.95 45.95-28.3L45.95-28.3Q46.1-26.35 46.1-24.3ZM72.09 0L65.19 0 65.19-35 72.09-35 72.09 0ZM77.14-16.05L77.14-35 84.04-35 84.04-15.55Q84.04-12.75 84.37-11.33 84.69-9.9 85.84-8.22 86.99-6.55 87.49-6.55 87.99-6.55 89.14-8.22 90.29-9.9 90.62-11.33 90.94-12.75 90.94-15.55L90.94-15.55 90.94-21.4Q90.94-25.6 90.37-27.25 89.79-28.9 87.94-31.3L87.94-31.3 93.94-35.6Q95.54-34.55 96.69-31.53 97.84-28.5 97.84-24.3L97.84-24.3 97.84-16.05Q97.84-12.15 97.09-9.65 96.34-7.15 92.82-3.28 89.29 0.6 87.49 0.6 85.69 0.6 82.17-3.28 78.64-7.15 77.89-9.65 77.14-12.15 77.14-16.05L77.14-16.05ZM108.99-28.2L108.99-21.3 117.94-21.3 117.94-15.25 108.99-15.25 108.99-6.05 120.94-6.05 120.94 0 102.09 0 102.09-30.8 108.99-35.6 120.14-35.6 120.14-29.5 110.84-29.5 108.99-28.2ZM131.19-32.85L131.19-32.85Q135.19-35.6 136.64-35.6 138.09-35.6 141.11-32.98 144.14-30.35 144.89-29.28 145.64-28.2 145.64-26.45L145.64-26.45Q145.64-23.05 145.09-22.4L145.09-22.4Q144.04-20.8 141.84-18.65L141.84-18.65Q144.89-15.75 145.64-14.2L145.64-14.2Q146.04-13.15 146.49-7.83 146.94-2.5 146.94 0L146.94 0 139.44 0Q139.44-2.25 139.04-7.05 138.64-11.85 138.16-12.85 137.69-13.85 137.04-14.6L137.04-14.6 132.59-14.6 132.59 0 125.69 0 125.69-21.9Q125.69-25.95 125.11-27.53 124.54-29.1 122.69-31.4L122.69-31.4 128.69-35.6Q130.29-34.55 131.19-32.85ZM132.59-24.3L132.59-24.3 132.59-20.45 134.54-20.45Q135.24-20.45 136.34-21.55 137.44-22.65 137.76-23.43 138.09-24.2 138.09-25.05 138.09-25.9 137.76-26.58 137.44-27.25 136.84-28.1 136.24-28.95 135.84-28.95L135.84-28.95Q134.49-28.95 132.44-28.3L132.44-28.3Q132.59-26.35 132.59-24.3ZM170.28-14.1L170.28-14.1Q170.83-13.2 170.83-10.53 170.83-7.85 169.73-6L169.73-6Q168.73-4.55 165.48-1.98 162.23 0.6 160.68 0.6L160.68 0.6Q157.93 0.6 154.38-2.27 150.83-5.15 149.88-8.6L149.88-8.6 155.43-12.4Q156.23-10.05 157.98-8.1 159.73-6.15 160.46-6.15 161.18-6.15 162.01-6.63 162.83-7.1 163.28-7.6L163.28-7.6Q163.93-8.4 163.93-10.1 163.93-11.8 163.13-12.2L163.13-12.2Q162.13-13.05 159.26-14.45 156.38-15.85 153.93-17.48 151.48-19.1 150.81-20.65 150.13-22.2 150.13-24.68 150.13-27.15 151.23-29L151.23-29Q152.23-30.45 155.48-33.02 158.73-35.6 160.28-35.6L160.28-35.6Q163.03-35.6 166.58-32.73 170.13-29.85 171.08-26.4L171.08-26.4 165.53-22.55Q164.73-24.9 162.98-26.88 161.23-28.85 160.51-28.85 159.78-28.85 158.93-28.4 158.08-27.95 157.56-27.28 157.03-26.6 157.03-24.98 157.03-23.35 158.03-22.8L158.03-22.8Q158.83-22.1 161.68-20.6L161.68-20.6Q168.98-16.6 170.28-14.1ZM192.73-19.85L192.73-19.85 192.73-14.55Q192.73-10.45 193.13-9.53 193.53-8.6 194.5-7.58 195.48-6.55 196.23-6.55 196.98-6.55 198.13-7.6 199.28-8.65 199.73-9.5L199.73-9.5Q200.03-10.35 200.08-12L200.08-12 196.63-12 196.63-17.55 206.58-17.55 206.58 0 201.73 0 201.13-3.4Q197.68 0.6 196.03 0.6 194.38 0.6 190.8-2.68 187.23-5.95 186.38-8L186.38-8Q185.83-9.3 185.83-14.55L185.83-14.55 185.83-19.85Q185.83-26.1 186.83-27.85 187.83-29.6 191.1-32.6 194.38-35.6 195.98-35.6L195.98-35.6Q198.73-35.6 202.28-32.4 205.83-29.2 206.78-25.4L206.78-25.4 201.23-21.55Q200.43-24.25 198.68-26.55 196.93-28.85 196.23-28.85L196.23-28.85Q194.98-28.85 193.38-26.4L193.38-26.4Q192.73-25.45 192.73-19.85ZM225.88-35L232.78-35 232.78-14.55Q232.78-9.3 232.23-8L232.23-8Q231.38-5.95 227.8-2.68 224.23 0.6 222.43 0.6 220.63 0.6 217.05-2.68 213.48-5.95 212.63-8L212.63-8Q212.08-9.3 212.08-14.55L212.08-14.55 212.08-21.8Q212.08-25.85 211.5-27.5 210.93-29.15 209.08-31.4L209.08-31.4 215.08-35.6Q216.68-34.55 217.83-31.53 218.98-28.5 218.98-24.3L218.98-24.3 218.98-14.55Q218.98-10.45 219.38-9.53 219.78-8.6 220.75-7.58 221.73-6.55 222.43-6.55 223.13-6.55 224.1-7.58 225.08-8.6 225.48-9.53 225.88-10.45 225.88-14.55L225.88-14.55 225.88-35ZM244.97 0L238.07 0 238.07-35 244.97-35 244.97 0ZM256.72-33L256.72-33Q260.02-35.6 261.72-35.6 263.42-35.6 267-32.33 270.57-29.05 271.42-27L271.42-27Q271.97-25.7 271.97-20.45L271.97-20.45 271.97-14.55Q271.97-9.3 271.42-8L271.42-8Q270.52-6.05 267.07-3.03 263.62 0 261.62 0L261.62 0 251.27 0 251.27-21.4Q251.27-25.45 250.7-27.1 250.12-28.75 248.27-31L248.27-31 254.87-35.6Q255.92-34.8 256.72-33ZM261.62-28.45L261.62-28.45Q260.17-28.45 258.02-27.5L258.02-27.5Q258.17-26.45 258.17-24.3L258.17-24.3 258.17-6.05 261.62-6.05Q262.32-6.05 263.3-7.08 264.27-8.1 264.67-9.03 265.07-9.95 265.07-14.05L265.07-14.05 265.07-20.45Q265.07-24.55 264.67-25.48 264.27-26.4 263.3-27.43 262.32-28.45 261.62-28.45ZM283.87-28.2L283.87-21.3 292.82-21.3 292.82-15.25 283.87-15.25 283.87-6.05 295.82-6.05 295.82 0 276.97 0 276.97-30.8 283.87-35.6 295.02-35.6 295.02-29.5 285.72-29.5 283.87-28.2ZM330.96-14.1L330.96-14.1Q331.51-13.2 331.51-10.53 331.51-7.85 330.41-6L330.41-6Q329.41-4.55 326.16-1.98 322.91 0.6 321.36 0.6L321.36 0.6Q318.61 0.6 315.06-2.27 311.51-5.15 310.56-8.6L310.56-8.6 316.11-12.4Q316.91-10.05 318.66-8.1 320.41-6.15 321.14-6.15 321.86-6.15 322.69-6.63 323.51-7.1 323.96-7.6L323.96-7.6Q324.61-8.4 324.61-10.1 324.61-11.8 323.81-12.2L323.81-12.2Q322.81-13.05 319.94-14.45 317.06-15.85 314.61-17.48 312.16-19.1 311.49-20.65 310.81-22.2 310.81-24.68 310.81-27.15 311.91-29L311.91-29Q312.91-30.45 316.16-33.02 319.41-35.6 320.96-35.6L320.96-35.6Q323.71-35.6 327.26-32.73 330.81-29.85 331.76-26.4L331.76-26.4 326.21-22.55Q325.41-24.9 323.66-26.88 321.91-28.85 321.19-28.85 320.46-28.85 319.61-28.4 318.76-27.95 318.24-27.28 317.71-26.6 317.71-24.98 317.71-23.35 318.71-22.8L318.71-22.8Q319.51-22.1 322.36-20.6L322.36-20.6Q329.66-16.6 330.96-14.1ZM342.16-28.2L342.16-21.3 351.11-21.3 351.11-15.25 342.16-15.25 342.16-6.05 354.11-6.05 354.11 0 335.26 0 335.26-30.8 342.16-35.6 353.31-35.6 353.31-29.5 344.01-29.5 342.16-28.2ZM364.36-32.85L364.36-32.85Q368.36-35.6 369.81-35.6 371.26-35.6 374.28-32.98 377.31-30.35 378.06-29.28 378.81-28.2 378.81-26.45L378.81-26.45Q378.81-23.05 378.26-22.4L378.26-22.4Q377.21-20.8 375.01-18.65L375.01-18.65Q378.06-15.75 378.81-14.2L378.81-14.2Q379.21-13.15 379.66-7.83 380.11-2.5 380.11 0L380.11 0 372.61 0Q372.61-2.25 372.21-7.05 371.81-11.85 371.33-12.85 370.86-13.85 370.21-14.6L370.21-14.6 365.76-14.6 365.76 0 358.86 0 358.86-21.9Q358.86-25.95 358.28-27.53 357.71-29.1 355.86-31.4L355.86-31.4 361.86-35.6Q363.46-34.55 364.36-32.85ZM365.76-24.3L365.76-24.3 365.76-20.45 367.71-20.45Q368.41-20.45 369.51-21.55 370.61-22.65 370.93-23.43 371.26-24.2 371.26-25.05 371.26-25.9 370.93-26.58 370.61-27.25 370.01-28.1 369.41-28.95 369.01-28.95L369.01-28.95Q367.66-28.95 365.61-28.3L365.61-28.3Q365.76-26.35 365.76-24.3ZM384.31-16.05L384.31-35 391.21-35 391.21-15.55Q391.21-12.75 391.53-11.33 391.86-9.9 393.01-8.22 394.16-6.55 394.66-6.55 395.16-6.55 396.31-8.22 397.46-9.9 397.78-11.33 398.11-12.75 398.11-15.55L398.11-15.55 398.11-21.4Q398.11-25.6 397.53-27.25 396.96-28.9 395.11-31.3L395.11-31.3 401.11-35.6Q402.71-34.55 403.86-31.53 405.01-28.5 405.01-24.3L405.01-24.3 405.01-16.05Q405.01-12.15 404.26-9.65 403.51-7.15 399.98-3.28 396.46 0.6 394.66 0.6 392.86 0.6 389.33-3.28 385.81-7.15 385.06-9.65 384.31-12.15 384.31-16.05L384.31-16.05ZM416.45 0L409.55 0 409.55-35 416.45-35 416.45 0ZM420.5-15.15L420.5-15.15 420.5-19.85Q420.5-26.1 421.5-27.85 422.5-29.6 425.78-32.6 429.05-35.6 430.65-35.6L430.65-35.6Q433.4-35.6 436.95-32.43 440.5-29.25 441.45-25.45L441.45-25.45 435.9-21.6Q435.1-24.3 433.35-26.58 431.6-28.85 430.9-28.85L430.9-28.85Q429.65-28.85 428.05-26.4L428.05-26.4Q427.4-25.45 427.4-19.85L427.4-19.85 427.4-15.15Q427.4-9.4 428.05-8.6L428.05-8.6Q429.65-6.15 430.9-6.15L430.9-6.15Q431.6-6.15 433.35-8.13 435.1-10.1 435.9-12.5L435.9-12.5 441.45-8.6Q440.5-5.15 436.95-2.27 433.4 0.6 430.65 0.6L430.65 0.6Q429.05 0.6 425.78-2.4 422.5-5.4 421.5-7.15 420.5-8.9 420.5-15.15ZM452.6-28.2L452.6-21.3 461.55-21.3 461.55-15.25 452.6-15.25 452.6-6.05 464.55-6.05 464.55 0 445.7 0 445.7-30.8 452.6-35.6 463.75-35.6 463.75-29.5 454.45-29.5 452.6-28.2Z" opacity="1" transform="matrix(1,0,0,1,0,0)" fill="#000000" class="wordmark-text-0" data-fill-palette-color="primary" id="text-0"></path></svg></g></svg></g></svg></g></svg></g><g><svg viewBox="0 0 45.004678686295776 38.04004139436224" height="38.04004139436224" width="45.004678686295776"><g><svg xmlns="http://www.w3.org/2000/svg" xmlns:xlink="http://www.w3.org/1999/xlink" version="1.1" x="0" y="0" viewBox="6 11.126 89.17399999999998 75.374" enable-background="new 0 0 100 100" xml:space="preserve" height="38.04004139436224" width="45.004678686295776" class="icon-icon-0" data-fill-palette-color="accent" id="icon-0"><g fill="#f6ca02" data-fill-palette-color="accent"><path d="M53.461 51.009l0.369-2.917c-3.98 0.694-7.704 0.949-11.016 0.949-4.215 0-7.757-0.41-10.331-0.843l0.494 3.07C17.197 53.48 6 60.261 6 68.5c0 10.094 16.801 18 38.25 18 21.448 0 38.25-7.906 38.25-18C82.5 59.906 70.317 52.902 53.461 51.009zM35.75 68.5c0 0 7.75 3.25 15.5 0l0.685-5.416C58.77 64.187 62.42 66.594 62.42 68c0 1.867-6.428 5.5-18.21 5.5C32.427 73.5 26 69.867 26 68c0-1.295 3.098-3.438 8.924-4.63L35.75 68.5zM44.25 82.5C23.763 82.5 10 75.261 10 68.5c0-5.509 9.14-11.335 23.609-13.304l0.68 4.228C27.344 60.797 22 63.687 22 68c0 6.237 11.173 9.5 22.21 9.5s22.21-3.263 22.21-9.5c0-4.658-6.232-7.656-13.984-8.876l0.526-4.161C68.541 56.657 78.5 62.75 78.5 68.5 78.5 75.261 64.737 82.5 44.25 82.5z" fill="#000000" data-fill-palette-color="accent"></path><path d="M92.494 11.126c-2.938 2.65-5.453 2.721-8.366 2.803-3.234 0.091-6.9 0.194-10.933 3.832-4.031 3.637-4.511 7.273-4.933 10.481-0.381 2.889-0.709 5.383-3.647 8.034-2.935 2.648-5.449 2.718-8.36 2.799-3.053 0.085-6.49 0.185-10.255 3.253V38c-3-4-5 0-5 0v4.634c-2.398 0.461-5.083 1.555-8.017 3.599 4.449 0.721 11.85 1.366 20.405-0.099-0.564-0.524-1.521-1.305-2.82-2.021 1.925-0.928 3.765-0.982 5.798-1.039 3.233-0.09 6.898-0.192 10.929-3.828 4.031-3.637 4.511-7.273 4.933-10.482 0.381-2.889 0.709-5.383 3.647-8.034 2.938-2.65 5.453-2.721 8.366-2.803 3.234-0.091 6.9-0.194 10.933-3.832L92.494 11.126z" fill="#000000" data-fill-palette-color="accent"></path></g></svg></g></svg></g></svg></g><defs></defs></svg><rect width="395.52" height="33.5969795234763" fill="none" stroke="none" visibility="hidden"></rect></g></svg></g></svg>